<?xml version="1.0" encoding="utf-8"?>
<!-- Generator: Adobe Illustrator 16.0.0, SVG Export Plug-In . SVG Version: 6.00 Build 0)  -->
<!DOCTYPE svg PUBLIC "-//W3C//DTD SVG 1.1//EN" "http://www.w3.org/Graphics/SVG/1.1/DTD/svg11.dtd">
<svg version="1.1" xmlns="http://www.w3.org/2000/svg" xmlns:xlink="http://www.w3.org/1999/xlink" x="0px" y="0px" width="93.25px"
	 height="32px" viewBox="0 0 93.25 32" enable-background="new 0 0 93.25 32" xml:space="preserve">
<g id="Selected_Items">
	<g>
		<g id="Selected_Items_10_">
			<path fill-rule="evenodd" clip-rule="evenodd" fill="#FFFFFF" d="M92.74 12.86C92.79 13.21 92.84 13.62 92.89 14.1C92.92 14.6 92.77 14.88 92.44 14.96C92.27 14.99 91.98 15.02 91.58 15.07C91.18 15.1 90.71 15.11 90.19 15.11C89.69 15.11 89.18 15.1 88.68 15.07C88.16 15.02 87.74 14.99 87.44 14.96L87.1 14.81L81.84 14.81C81.84 14.84 81.77 14.9 81.62 15C81.59 15.07 81.57 15.11 81.54 15.11L80.83 15.3L80.45 15.11L79.7 15.11L79.55 15.3C79.45 15.38 79.4 15.46 79.4 15.56L79.4 15.71L79.1 16.28L78.42 16.28L78.42 17.56L78.08 17.71C77.98 17.76 77.86 17.78 77.71 17.78C77.43 17.78 77.23 17.76 77.11 17.71L76.13 17.56L73.23 17.56L73.23 18.04L72.93 18.04C72.23 18.04 71.83 18.02 71.73 17.97C71.6 17.92 71.5 17.88 71.43 17.86C71.43 17.76 71.43 17.69 71.43 17.67C71.38 17.67 71.35 17.63 71.35 17.56L71.43 17.56L71.43 17.4L58.91 17.4C58.56 17.45 58.14 17.51 57.67 17.56C57.19 17.58 56.75 17.62 56.35 17.67C55.9 17.69 55.53 17.73 55.22 17.78C54.97 17.83 54.81 17.86 54.74 17.86C54.51 17.98 54.3 17.98 54.1 17.86C54.02 17.81 53.96 17.76 53.91 17.71L53.72 17.56L53.72 17.26L48.76 17.26C48.81 18.11 48.89 19.06 48.98 20.11C49.09 21.14 49.17 22.12 49.25 23.05C49.35 23.95 49.42 24.74 49.47 25.41C49.55 26.02 49.59 26.4 49.59 26.58C49.56 26.63 49.5 26.74 49.4 26.92C49.3 27.02 48.9 27.12 48.2 27.22C47.44 27.34 46.7 27.49 45.98 27.67C45.18 27.79 44.55 27.88 44.1 27.93C43.65 28.01 43.31 28.07 43.08 28.12C42.88 28.15 42.73 28.15 42.63 28.12C42.58 28.07 42.53 28.02 42.48 27.97C42.48 27.95 42.47 27.87 42.45 27.74C42.45 27.67 42.41 27.34 42.33 26.77C42.28 26.19 42.19 25.38 42.07 24.32C41.99 23.17 41.87 21.6 41.69 19.62L41.05 19.62L40.68 20.26L40.38 20.26L40.68 19.62L39.89 19.62L39.89 19.81C39.71 20.46 39.51 21.04 39.29 21.54C39.06 22.02 38.8 22.36 38.5 22.56C38.02 22.76 37.38 22.88 36.58 22.93C35.73 22.96 35.13 22.88 34.78 22.71L34.25 22.37C34.05 22.29 33.86 22.21 33.69 22.11C33.51 22 33.37 21.93 33.27 21.88L33.08 22.07C33.01 22.14 32.91 22.34 32.78 22.67C32.66 22.99 32.51 23.31 32.33 23.61C31.98 24.48 31.67 25.19 31.39 25.71C31.12 26.21 30.9 26.6 30.75 26.88C30.58 27.18 30.44 27.35 30.34 27.4C30.21 27.48 30.11 27.52 30.04 27.52C29.84 27.52 29.32 27.27 28.5 26.77C27.7 26.26 26.93 25.71 26.2 25.11L25.9 24.92L26.02 24.77C26.04 24.72 26.13 24.55 26.28 24.25C26.38 24 26.53 23.69 26.73 23.34C26.91 23.02 27.08 22.7 27.26 22.4C27.43 22.1 27.63 21.88 27.86 21.73L28.01 21.54C28.23 21.32 28.47 21.06 28.72 20.79C29 20.51 29.19 20.19 29.29 19.81C29.39 19.31 29.34 18.9 29.14 18.57C28.91 18.29 28.69 18.12 28.46 18.04L22.63 18.04C22.61 18.04 22.53 18.06 22.4 18.08C22.3 18.13 22.17 18.16 21.99 18.16C21.79 18.21 21.58 18.27 21.35 18.34C21.2 18.39 20.69 18.57 19.81 18.87C18.93 19.2 17.89 19.57 16.69 20C15.56 20.45 14.32 20.93 12.97 21.43C11.69 21.88 10.47 22.32 9.32 22.74C8.24 23.12 7.33 23.44 6.58 23.72C5.85 24.02 5.45 24.17 5.37 24.17C5.12 24.22 4.81 24.27 4.43 24.32C4.01 24.37 3.61 24.42 3.23 24.47C2.83 24.52 2.45 24.55 2.1 24.55C1.8 24.6 1.55 24.57 1.35 24.47C1.05 24.32 0.86 24.1 0.79 23.8C0.76 23.55 0.75 23.23 0.75 22.86C0.75 22.68 0.75 22.49 0.75 22.29C0.78 22.07 0.84 21.88 0.94 21.73C1.01 21.48 1.05 21.24 1.05 21.01C1.05 20.79 1.05 20.5 1.05 20.15C1.15 19.95 1.21 19.77 1.24 19.62C1.26 19.45 1.28 19.25 1.28 19.02C1.28 18.37 1.25 17.73 1.2 17.1C1.1 16.48 1.05 16.08 1.05 15.9L0.94 15.9C0.84 15.68 0.78 15.48 0.75 15.3C0.75 15.1 0.75 14.94 0.75 14.81L0.75 14.32C0.85 14.22 0.91 14.15 0.94 14.1C0.94 14.05 1.05 14.02 1.28 14.02C1.33 13.97 1.53 13.92 1.88 13.87C2.23 13.85 2.62 13.81 3.04 13.76C3.52 13.76 3.97 13.76 4.4 13.76C4.8 13.73 5.12 13.72 5.38 13.72C5.48 13.47 5.59 13.19 5.71 12.89C5.79 12.64 6 12.47 6.35 12.37C6.58 12.29 7.25 12.25 8.38 12.25C9.49 12.23 10.7 12.2 12.03 12.18C13.33 12.13 14.59 12.1 15.79 12.1C16.97 12.08 17.7 12.07 18.01 12.07L18.19 12.07C18.29 12.27 18.42 12.43 18.57 12.56C18.64 12.76 18.73 12.93 18.83 13.08C18.93 13.26 19.03 13.36 19.13 13.38C19.28 13.38 19.48 13.37 19.74 13.34C19.96 13.34 20.11 13.29 20.19 13.19C20.46 13.07 20.91 12.84 21.54 12.52C22.17 12.14 22.59 11.88 22.82 11.73C23.14 11.5 23.42 11.35 23.65 11.28C23.87 11.13 24.18 11.05 24.59 11.05C24.96 11.05 25.5 11.05 26.2 11.05C26.93 11.05 27.48 11.03 27.86 10.98C27.88 10.93 27.92 10.88 27.97 10.83C27.99 10.75 28.06 10.68 28.16 10.6C28.23 10.5 28.29 10.39 28.34 10.26L29.13 9.81L29.74 9.66C29.86 9.76 29.97 9.83 30.07 9.88C30.35 9.94 30.53 9.96 30.6 9.96L31.2 10.11L31.73 10.75L31.73 10.9L31.5 11.05L31.84 11.05L31.84 10.45L31.54 10.22C31.47 10.15 31.42 10.06 31.39 9.96C31.39 9.96 43.51 9.9 43.23 10.07C42.96 10.2 42.82 10.32 42.82 10.45C42.74 10.45 42.68 10.5 42.63 10.6C42.63 10.75 42.58 10.9 42.48 11.05L63.42 11.05C63.47 11.02 63.62 11.01 63.87 11.01C64.14 10.99 64.43 10.95 64.73 10.9C65.04 10.85 65.34 10.82 65.64 10.82C65.94 10.77 66.15 10.75 66.28 10.75C66.58 10.75 66.86 10.73 67.14 10.71C67.39 10.63 67.59 10.6 67.74 10.6L68.04 10.3C68.14 10.25 68.22 10.2 68.27 10.15L69.7 10.15C69.8 10.22 69.87 10.32 69.92 10.45C70.1 10.7 70.22 10.87 70.3 10.97L77.93 10.97C77.83 10.72 77.75 10.45 77.7 10.14C77.65 9.89 77.63 9.67 77.63 9.47C77.63 9.27 77.64 9.15 77.67 9.13L77.78 9.02C77.95 8.77 78.14 8.59 78.34 8.49C78.52 8.37 78.67 8.3 78.79 8.3L79.55 8.49L79.85 9.36L80.15 11.05L80.15 12.06C80.25 12.06 80.35 12.12 80.45 12.25C80.45 12.35 80.45 12.45 80.45 12.55L80.33 12.7L80.45 12.7C80.6 12.7 80.7 12.69 80.75 12.66L80.82 12.55L81.61 12.55L81.73 12.66C81.8 12.69 81.86 12.7 81.91 12.7L92.59 12.7L92.74 12.86ZM33.83 19.7C33.76 19.8 33.7 19.89 33.64 19.96L34.13 20.45C34.31 20.53 34.46 20.61 34.58 20.71C34.71 20.76 34.81 20.79 34.88 20.79C35.16 20.84 35.42 20.86 35.68 20.86C35.92 20.86 36.1 20.86 36.2 20.86C36.35 20.86 36.58 20.86 36.88 20.86C37.15 20.86 37.35 20.84 37.48 20.79C37.65 20.79 37.75 20.71 37.78 20.56C37.78 20.46 37.86 20.33 38.01 20.15C38.21 19.6 38.31 19.28 38.31 19.21L38.31 19.1C38.31 19.05 38.26 19.02 38.16 19.02C38.08 19.02 37.94 19.05 37.74 19.1C37.54 19.17 37.35 19.25 37.18 19.32L36.2 19.32C36.02 19.32 35.69 19.35 35.18 19.4C34.68 19.47 34.33 19.55 34.13 19.62C34.06 19.62 33.96 19.65 33.83 19.7Z" /></g></g></g><g ></g></svg>
